# xmcd
# Track frame offsets:
# 150
# 20082
# 36310
# 55692
# 74880
# 91147
# 111497
# 125665
# 140905
# 158580
# 175422
# 191930
# 209605
#
# Disc length: 3001 seconds
# Revision: 0
# Processed by: cddbd v1.4PL0 Copyright (c) Steve Scherf et al.
# Submitted via: VisiTrax 2.9.5.180 - For more info visit www.synapsa.com
#
DISCID=d20bb70d
DTITLE=Deborah Minter - Innocent days
DYEAR=1900
DGENRE=
TTITLE0=The clear blue sky
TTITLE1=Please say anything
TTITLE2=Innocent days
TTITLE3=Middle of midnight
TTITLE4=Mustering
TTITLE5=Is it worth another try
TTITLE6=One day soon
TTITLE7=How do I make me fall in love with you
TTITLE8=I'd give the world to see you smile
TTITLE9=Come to me
TTITLE10=Black eye blues
TTITLE11=Rodeo man
TTITLE12=Stop!
EXTD=
EXTT0=
EXTT1=
EXTT2=
EXTT3=
EXTT4=
EXTT5=
EXTT6=
EXTT7=
EXTT8=
EXTT9=
EXTT10=
EXTT11=
EXTT12=
PLAYORDER=
